<svg t="1771485777381" class="icon" viewBox="0 0 1024 1024" version="1.1" xmlns="http://www.w3.org/2000/svg" p-id="9827" width="200" height="200"><path d="M479.1616 738.4448c0 26.4512 0.0256 52.9024-0.0064 79.3536-0.0768 62.7904-46.6944 116.7936-108.8128 125.9392-5.888 0.864-11.8912 1.3632-17.8368 1.3696-53.7536 0.1024-107.5136 0.2944-161.2672-0.0128-60.7488-0.3456-114.08-46.432-123.6288-106.496-1.1648-7.3408-1.8048-14.8416-1.8304-22.2656-0.1536-51.9424-0.1088-103.8848-0.0768-155.8272 0.0384-61.0496 40.9792-112.4352 100.5504-125.7152 8.6656-1.9328 17.728-2.8992 26.6112-2.944 53.0048-0.2688 106.016-0.1536 159.0272-0.128 61.8048 0.0384 115.2512 45.3248 125.3632 106.3808 1.1776 7.1168 1.7664 14.4064 1.824 21.6256 0.2112 26.24 0.0832 52.48 0.0832 78.72zM272.64 595.712v-0.0192H194.5728c-0.5312 0-1.0688 0.0128-1.6 0.0192-35.0976 0.4864-63.232 28.8448-63.2576 63.8976-0.0448 52.256-0.0384 104.512 0 156.768 0.0256 36.4416 28.2432 64.7424 64.64 64.7808 52.0448 0.0576 104.0896 0.0384 156.128-0.0256 3.9232-0.0064 7.9168-0.256 11.7632-0.992 31.5392-6.0288 52.8384-31.584 52.9088-63.6992 0.1088-52.0448 0.0768-104.0896-0.0448-156.128-0.0128-5.0752-0.5184-10.2656-1.6832-15.1936-6.912-29.1904-32.0128-49.1648-62.0864-49.376-26.2272-0.1792-52.4672-0.032-78.7008-0.032zM547.8592 738.0032c0-26.3424-0.0256-52.6912 0.0064-79.0336 0.0704-62.7328 46.3232-116.5696 108.3776-125.984 6.2976-0.9536 12.736-1.408 19.1104-1.4208 52.7936-0.1088 105.5936-0.0768 158.3872-0.0576 62.1888 0.0256 115.6032 45.312 125.7152 106.7392 1.088 6.5984 1.7664 13.3504 1.7792 20.032 0.1408 53.5424 0.2624 107.0848 0.0192 160.6272-0.2624 58.4192-42.272 110.24-99.4304 122.7136-8.896 1.9392-18.1376 3.1424-27.2256 3.1936-53.7536 0.288-107.5136 0.3776-161.2672 0.0704-60.4736-0.3456-113.9264-46.336-123.4752-105.9072-1.2416-7.7504-1.8304-15.68-1.9072-23.5392-0.2304-25.8112-0.0896-51.6224-0.0896-77.4336z m63.9936-0.0832H611.84v78.0672c0 0.32 0.0064 0.64 0.0064 0.96 0.384 35.9488 28.5056 63.9552 64.448 64 52.1472 0.0704 104.3008 0.064 156.448 0 36.2368-0.0448 64.5248-28.3392 64.5632-64.5312 0.0512-52.3648 0.032-104.7296-0.0256-157.088-0.0064-3.6032-0.2688-7.2704-0.9344-10.8096-5.9456-31.6672-31.7248-52.9728-64.288-53.0176-51.616-0.0768-103.232-0.0704-154.848 0.0512-5.2864 0.0128-10.7008 0.48-15.8336 1.6768-29.1456 6.7776-49.2864 32.0192-49.4848 61.9904-0.1728 26.2272-0.0384 52.4672-0.0384 78.7008zM547.9808 272.8576V195.104c0.0064-63.8592 45.4272-117.1648 108.512-127.1552 5.9776-0.9472 12.096-1.4144 18.1504-1.4272 53.3312-0.1088 106.656-0.2304 159.9872-0.0192 62.5792 0.2496 116.192 46.8416 125.3376 108.736 0.992 6.7264 1.3888 13.5936 1.408 20.3968 0.1152 51.7312 0.0768 103.456 0.0576 155.1872-0.0192 62.7328-42.7712 114.8736-104.3008 126.8544-7.6928 1.4976-15.6672 2.1248-23.5136 2.1568-52.5824 0.1856-105.1648 0.1408-157.7472 0.0832-60.416-0.064-112.3392-41.9136-124.992-101.0624-1.856-8.6912-2.6624-17.7408-2.7776-26.6432-0.3456-26.4448-0.1216-52.9024-0.1216-79.3536z m63.9936 0.1984h-0.0128v78.0672c0 0.4288 0.0064 0.8512 0.0128 1.28 0.4352 35.36 28.6208 63.4496 63.9488 63.5072 52.576 0.0832 105.152 0.0896 157.728 0 35.2128-0.064 63.68-28.4672 63.7568-63.68 0.1152-52.6848 0.1216-105.3696 0-158.048-0.0832-35.2064-28.5696-63.616-63.776-63.68-52.6848-0.096-105.3696-0.064-158.048 0.0448-4.6464 0.0128-9.4016 0.5568-13.9264 1.6128-29.2928 6.816-49.4656 32.0512-49.6512 62.208-0.1664 26.2144-0.032 52.448-0.032 78.688zM478.9056 273.28v78.0736c-0.0064 63.6992-45.4016 117.0816-108.2496 127.0464-6.7072 1.0624-13.5872 1.4464-20.384 1.4592-51.9424 0.1152-103.8848 0.0704-155.8272 0.064-64.2048-0.0064-117.3632-45.1712-127.4816-108.4928-1.0368-6.496-1.4336-13.1584-1.4528-19.7504-0.1152-52.2624-0.1088-104.5248-0.0512-156.7872 0.0704-62.2656 43.4752-114.72 104.6592-126.24 7.6032-1.4336 15.4624-2.0736 23.2-2.0992 52.5824-0.1792 105.1648-0.1472 157.7472-0.0768 63.1232 0.0832 116.6784 45.984 126.3424 108.3456 0.992 6.4 1.3952 12.9472 1.4336 19.4304 0.1536 26.3424 0.064 52.6848 0.064 79.0272z m-63.9936 0.2368c0-26.4512 0.16-52.896-0.0384-79.3472-0.2688-35.5648-28.5696-63.648-64.064-63.6928-52.4672-0.064-104.9408-0.0384-157.408 0.0256-3.712 0.0064-7.4816 0.288-11.1232 0.9856-31.552 6.048-52.8128 31.9104-52.8256 64.1344-0.0128 51.7248-0.0128 103.4496 0.0192 155.168 0 3.0848 0.2112 6.1824 0.5632 9.2416 3.5328 31.0336 30.7776 55.7248 62.1056 55.8272 53.3248 0.1664 106.6496 0.1152 159.968-0.0512 5.3632-0.0192 10.8736-0.896 16.0576-2.3296 27.5648-7.6032 46.5152-32.3264 46.7136-60.9472 0.1664-26.3296 0.0256-52.672 0.032-79.0144z" p-id="9828" fill="#ffffff"></path></svg>